<svg xmlns="http://www.w3.org/2000/svg" width="24" height="24" viewBox="0 0 24 24"><defs><style>.a{fill:none;}.b{fill:#01572c;}</style></defs><g transform="translate(24)"><rect class="a" width="24" height="24" transform="translate(-24)"/><path class="b" d="M-10.293,13.707a1,1,0,0,0,0-1.414L-14.586,8H-1A1,1,0,0,0,0,7,1,1,0,0,0-1,6H-14.586l4.293-4.293a1,1,0,0,0,0-1.415,1,1,0,0,0-1.414,0l-6,6a1,1,0,0,0-.172.231h0l-.01.019,0,.005-.007.014-.006.012,0,.008-.008.018v0A1,1,0,0,0-18,7a1,1,0,0,0,.092.419l0,0,.008.016,0,.009.005.011.007.013,0,.008.008.015,0,.005.01.016,0,0,.011.017,0,0,.012.018,0,0,.012.017,0,0,.012.016,0,0,.011.014,0,.006.01.012.009.011.006.007.015.017h0l.04.042,6,6A1,1,0,0,0-11,14,1,1,0,0,0-10.293,13.707Z" transform="translate(-3 5)"/></g></svg>