<svg xmlns="http://www.w3.org/2000/svg" width="223" height="273" viewBox="0 0 223 273"><defs><style>.a{fill:#f3f5d1;}.b{fill:#fff;}.c{fill:#414b5a;font-size:10px;font-family:Montserrat-Regular, Montserrat;letter-spacing:0.036em;}.d{fill:#061432;}.e{fill:#01572c;}.f{fill:#f27553;}.g{fill:#ba2026;}.h{fill:#fd9375;}.i{fill:#3bb8ea;}.j{fill:#ba2027;}.k{fill:#01572d;}.l{fill:#3eb7e9;}.m{fill:#f3f3e5;}.n{fill:#f2f5d1;}</style></defs><g transform="translate(-68 -32)"><rect class="a" width="169" height="268" rx="15" transform="translate(122 32)"/><rect class="b" width="71" height="71" rx="15" transform="translate(132 108)"/><rect class="b" width="71" height="71" rx="15" transform="translate(213 108)"/><rect class="b" width="71" height="71" rx="15" transform="translate(132 189)"/><rect class="b" width="71" height="71" rx="15" transform="translate(213 189)"/><rect class="b" width="149" height="25" rx="12.5" transform="translate(132 68)"/><text class="c" transform="translate(159 84)"><tspan x="-17.963" y="0">Search</tspan></text><path class="d" d="M8.253,8.891,6.209,6.846A3.835,3.835,0,1,1,3.838,0V0A3.833,3.833,0,0,1,6.848,6.21L8.893,8.255a.453.453,0,0,1-.64.636Z" transform="translate(264 76)"/><path class="d" d="M2.152.763,0,19H23c-.6-4.9-2.815-8.856-13.616-7.883L6.691,0Z" transform="translate(113 286)"/><path class="d" d="M20.848.763,23,19H0c.6-4.9,2.816-8.856,13.617-7.883L16.31,0Z" transform="translate(82 286)"/><path class="e" d="M4.818,0h37.54c9.761,14.264,4.617,70.652,1.147,104.089H33.24c-.187-17.448-4.2-43.425-9.415-72.151-1.919,27.245-1.45,52.025,2.64,73.062H16.008C3.1,59.633-6.047,18.509,4.818,0Z" transform="translate(79 183)"/><path class="f" d="M18.472.288C19.321,4.12,21.05,6.624,23,7.417c-.036,2.691-2.716,4.643-6.2,6.371-7.079.8-12.093-.793-16.8-2.727L7.07,0Z" transform="translate(88 118)"/><path class="g" d="M44.125,0C40.239,7.556,25.465,6.785,19.549,2.468,7.875,10.179-9.217,41.176,6.032,52.433c4.35,2.69,8.1,2.133,11.366-1.082l-.922,6.325c9.981,3.495,23.123,2.675,37.629,0l-1.554-9.1c3.508,4.2,8.009,4.153,13.21,1.082C78.8,40.4,65.967,9.74,44.125,0Z" transform="translate(68 126)"/><path class="h" d="M11,0c6.075,0,11,6.044,11,13.5S17.075,27,11,27,0,20.956,0,13.5,4.925,0,11,0Z" transform="translate(90 96)"/><rect class="i" width="11" height="17" rx="4.25" transform="translate(100 135)"/><path class="h" d="M0,9.6,4.051,15a43.15,43.15,0,0,1,9.026-5.663L14,4.5c-1.153-1.168-3.794-1.28-6.668-.726C8.569,2.356,12.871,1.59,12.871.5c-.1-.907-2.184-.575-6.734.989C3.932,2.592,2.357,6.067,0,9.6Z" transform="translate(92 143)"/><path class="h" d="M13.818,15,3.426,9.727,1.211,3.656,0,2.27l1.647-.639C4.64,3.39,9.784,5.279,10.558,4.506,7.325,2.5,4.781.592,5.23.142c.845-.658,4.3,1.048,8.6,3.514C15.96,5.04,16.682,7.81,18,10.366Z" transform="translate(101 142)"/><path class="d" d="M24.016,8.819c-9.447,6.515-9.059,28.214-2.429,39.336l-3.2.548-1.005-2.346v2.334l-5.167,1.5-.761-2.806-.5,2.806L0,53V43.392c0-9.12,5.124-12.225,5.124-18.14C3.926,9.233,11.253,0,19.375,0,31.517,0,33.332,9.788,35.168,19.542,35.5,23.534,42,26.5,42,34.372a15.755,15.755,0,0,1-2.117,8.057c-2.75-2.173-5.384-3.181-8.323-5.028-2.722-.424-4.143-2.892-4.027-5.534C35.052,22.68,30.285,13.5,24.016,8.819Z" transform="translate(80 88)"/><path class="d" d="M.159,11a.162.162,0,0,1-.128-.069A.171.171,0,0,1,0,10.809.165.165,0,0,1,.064,10.7C2.929,8.458,4.761,4.993,5.69.136A.165.165,0,0,1,5.755.028.149.149,0,0,1,5.875,0,.167.167,0,0,1,6,.2C5.054,5.144,3.177,8.666.252,10.965A.147.147,0,0,1,.159,11Z" transform="translate(83 189)"/><path class="d" d="M6.823,11a.182.182,0,0,1-.109-.038C2.833,7.966.586,4.334,0,.186A.171.171,0,0,1,.152,0a.175.175,0,0,1,.2.14C.921,4.2,3.137,7.748,6.936,10.7a.166.166,0,0,1,.026.237A.185.185,0,0,1,6.823,11Z" transform="translate(116 188)"/><path class="d" d="M.9,15a.133.133,0,0,1-.115-.12,47.919,47.919,0,0,1-.4-14.7A.181.181,0,0,1,.453.016.1.1,0,0,1,.59.048.209.209,0,0,1,.612.236,47.56,47.56,0,0,0,1,14.8a.174.174,0,0,1-.086.2Z" transform="translate(102 197)"/><path class="d" d="M3.228,23a.163.163,0,0,1-.113-.045.151.151,0,0,1,0-.222C6.789,19.018,9.733,14.224,12.651,7.2L8.458,2.03.285,10.5a.171.171,0,0,1-.21.022.155.155,0,0,1-.063-.193A22.34,22.34,0,0,0,2.4.165.155.155,0,0,1,2.446.051.169.169,0,0,1,2.561,0,.166.166,0,0,1,2.73.153,22.074,22.074,0,0,1,.695,9.6l7.654-7.94a.166.166,0,0,1,.128-.051.174.174,0,0,1,.122.063l4.365,5.4a.156.156,0,0,1,.025.156c-2.947,7.109-5.922,11.957-9.642,15.717A.166.166,0,0,1,3.228,23Z" transform="translate(84 151)"/><path class="d" d="M4.557,27a.155.155,0,0,1-.127-.067A25.6,25.6,0,0,1,0,12.3a.167.167,0,0,1,.041-.109l4.5-5.164a.153.153,0,0,1,.135-.051.156.156,0,0,1,.118.085L6.268,10c-1-3.645-1.89-7.421-1.878-9.841A.161.161,0,0,1,4.433.047.151.151,0,0,1,4.543,0h0A.159.159,0,0,1,4.7.161c0,2.734,1.151,7.232,2.293,11.284a.167.167,0,0,1-.024.161.156.156,0,0,1-.147.059.159.159,0,0,1-.123-.1L4.6,7.414.291,12.353A25.308,25.308,0,0,0,4.66,26.742a.165.165,0,0,1,.027.12.162.162,0,0,1-.063.1A.142.142,0,0,1,4.557,27Z" transform="translate(115 145)"/><path class="d" d="M1.432,1A1.685,1.685,0,0,1,.017.333.126.126,0,0,1,.074.156a.164.164,0,0,1,.2.04A1.378,1.378,0,0,0,1.466.733,1.447,1.447,0,0,0,2.707.087.15.15,0,0,1,2.836,0,.157.157,0,0,1,2.98.068a.122.122,0,0,1-.008.144A1.739,1.739,0,0,1,1.475,1Z" transform="translate(101 115)"/><path class="d" d="M3.072,2H2.924A3.478,3.478,0,0,1,.027.74.187.187,0,0,1,.069.5a.152.152,0,0,1,.22.046A3.216,3.216,0,0,0,2.93,1.653,4.539,4.539,0,0,0,6.715.069.155.155,0,0,1,6.82,0a.147.147,0,0,1,.118.035.184.184,0,0,1,.03.242A4.789,4.789,0,0,1,3.072,2Z" transform="translate(98 116)"/><path class="d" d="M1.8,2A2.753,2.753,0,0,1,.075,1.23a.273.273,0,0,1-.052-.3C.067.828.162.8.235.857c1.357,1.155,2.5.9,3.5-.778A.146.146,0,0,1,3.834,0,.125.125,0,0,1,3.946.05a.294.294,0,0,1,.02.307C3.323,1.451,2.594,2,1.8,2Z" transform="translate(104 108)"/><path class="d" d="M.17,1A.208.208,0,0,1,.035.953.1.1,0,0,1,.067.787a8.136,8.136,0,0,1,4.839-.7c.068.024.1.075.091.127a.158.158,0,0,1-.149.1A7.631,7.631,0,0,0,.283.966.205.205,0,0,1,.17,1Z" transform="translate(103 106)"/><path class="d" d="M1.853,1A3.675,3.675,0,0,1,.065.494.118.118,0,0,1,0,.419.1.1,0,0,1,.028.331a.163.163,0,0,1,.1-.049A.189.189,0,0,1,.241.3a2.9,2.9,0,0,0,3.5-.268.186.186,0,0,1,.214,0A.107.107,0,0,1,4,.118.107.107,0,0,1,3.955.2,3.328,3.328,0,0,1,1.853,1Z" transform="translate(95 109)"/><path class="d" d="M.162,1A.168.168,0,0,1,0,.865.175.175,0,0,1,.09.673a5.636,5.636,0,0,1,4.8-.248A.174.174,0,0,1,5,.564a.179.179,0,0,1-.063.163.165.165,0,0,1-.168.025A5.329,5.329,0,0,0,.231.993.192.192,0,0,1,.162,1Z" transform="translate(94 107)"/><path class="d" d="M8.865,5H8.824C4.637,3.941,1.765,2.4.042.29A.179.179,0,0,1,0,.164.176.176,0,0,1,.058.044.163.163,0,0,1,.18,0,.165.165,0,0,1,.3.061C1.971,2.116,4.786,3.618,8.9,4.657a.178.178,0,0,1,.1.181.173.173,0,0,1-.134.152Z" transform="translate(102 145)"/><path class="d" d="M.151,1A.164.164,0,0,1,0,.843.167.167,0,0,1,.13.667L4.825,0A.161.161,0,0,1,5,.146a.167.167,0,0,1-.131.188L.172,1Z" transform="translate(100 149)"/><path class="d" d="M.178,1A.173.173,0,0,1,0,.874.131.131,0,0,1,.032.761.181.181,0,0,1,.148.7L4.839,0A.17.17,0,0,1,5,.122.146.146,0,0,1,4.9.286L.208.986Z" transform="translate(100 151)"/><path class="d" d="M6.82,4H6.771L.651,2.349A.914.914,0,0,1,0,1.5,1.739,1.739,0,0,1,1.081.011.183.183,0,0,1,1.3.083a.142.142,0,0,1-.061.2,1.439,1.439,0,0,0-.9,1.212.619.619,0,0,0,.433.574l6.1,1.643a.167.167,0,0,1,.1.072.134.134,0,0,1,.013.114A.174.174,0,0,1,6.82,4Z" transform="translate(105 148)"/><rect class="d" width="3" height="2" rx="1" transform="translate(102 136)"/><g transform="translate(771.014 -347.404)"><path class="j" d="M-525.146,564.423h-6.5v-7.939c0-5.773,6.5-5.052,6.5-5.052Z" transform="translate(-0.93)"/><path class="k" d="M-534.014,587.057h9.382V605.82a1.444,1.444,0,0,1-1.443,1.443h-6.5a1.443,1.443,0,0,1-1.443-1.443Z" transform="translate(0 -13.975)"/><rect class="l" width="7.938" height="8.66" transform="translate(-533.293 564.422)"/><rect class="l" width="7.938" height="2.887" transform="translate(-533.293 570.195)"/><path class="j" d="M-531.641,556.484c6.5,1.443,6.5-5.052,6.5-5.052s-6.5-.722-6.5,5.052Z" transform="translate(-0.93)"/><path class="l" d="M-511.464,587.057h9.382V605.82a1.443,1.443,0,0,1-1.443,1.443h-6.495a1.444,1.444,0,0,1-1.443-1.443Z" transform="translate(-8.839 -13.975)"/><path class="k" d="M-510.021,551.451h6.495a1.443,1.443,0,0,1,1.443,1.443V573.1h-9.382V552.894a1.443,1.443,0,0,1,1.443-1.443Z" transform="translate(-8.839 -0.019)"/><rect class="m" width="1.443" height="12.284" transform="translate(-528.241 574.467)"/><rect class="m" width="1.443" height="7.005" transform="translate(-518.137 562.865)"/><rect class="m" width="1.443" height="7.005" transform="translate(-518.137 553.717)"/><rect class="m" width="1.443" height="2.43" transform="translate(-528.241 588.694)"/><rect class="m" width="1.443" height="12.284" transform="translate(-518.137 574.467)"/><rect class="m" width="1.443" height="2.43" transform="translate(-518.137 588.694)"/></g><g transform="translate(552.912 -258.455)"><path class="k" d="M-366.115,511.591h-18.15a3.2,3.2,0,0,1-2.9-3.63l.726-6.534h22.505l.726,6.534a3.2,3.2,0,0,1-2.9,3.63Z" transform="translate(-3.282 -7.25)"/><rect class="j" width="18.876" height="2.904" transform="translate(-388.244 491.273)"/><path class="n" d="M-368.154,492.489V489.4a1.271,1.271,0,0,0-1.27-1.271h-.363a1.271,1.271,0,0,1-.9-.372,1.268,1.268,0,0,1-.372-.9v-.454a1.9,1.9,0,0,0-1.906-1.906h-1v2.54a2.541,2.541,0,0,1-2.54,2.541h-3.267a1.451,1.451,0,0,0-1.452,1.452v1.452a1.452,1.452,0,0,0-1.452,1.452v1.452H-366.7v-1.452a1.451,1.451,0,0,0-1.452-1.452Z" transform="translate(-4.119 -4.119)"/><rect class="l" width="5.808" height="1.452" transform="translate(-378.08 486.917)"/><rect class="l" width="3.63" height="1.452" transform="translate(-385.34 486.917)"/><path class="n" d="M-379.439,504.99h10.164a1.449,1.449,0,0,1,1.452,1.452,1.448,1.448,0,0,1-1.452,1.452h-10.164a1.448,1.448,0,0,1-1.452-1.452,1.449,1.449,0,0,1,1.452-1.452Z" transform="translate(-4.449 -7.909)"/><path class="n" d="M-361.978,510.2h-1.989v-1.452h1.989l-.553-2.759,1.424-.29.553,2.759a1.45,1.45,0,0,1-.3,1.209,1.452,1.452,0,0,1-1.126.533Z" transform="translate(-7.58 -8.041)"/><path class="k" d="M-404.942,481.83h13.068v24.684a1.452,1.452,0,0,1-1.452,1.452H-403.49a1.453,1.453,0,0,1-1.452-1.452Z" transform="translate(0 -3.625)"/><path class="l" d="M-393,479.853H-403.16v-5.082l.725-3.63h8.712l.725,3.63Z" transform="translate(-0.33 -1.648)"/><path class="j" d="M-400.488,463.686v5.808h5.808v-4.355h2.9v-2.9h-5.082Z" transform="translate(-0.824 0)"/><rect class="j" width="13.068" height="2.904" transform="translate(-404.942 478.205)"/><rect class="n" width="2.904" height="15.972" transform="translate(-402.038 484.013)"/><rect class="n" width="1.452" height="1.452" transform="translate(-395.504 483.287)"/><rect class="n" width="1.452" height="1.452" transform="translate(-395.504 486.191)"/><path class="n" d="M-399.036,477.443h-1.452v-2.9a.727.727,0,0,1,.726-.726h2.178v1.452h-1.452Z" transform="translate(-0.824 -2.142)"/></g><g transform="translate(821.591 -434.087)"><path class="k" d="M-654.631,558.994a9.5,9.5,0,0,0-9.5,9.5v2.035a9.495,9.495,0,0,0-9.495-9.5v5.426a9.5,9.5,0,0,0,9.495,9.5h1.357a9.5,9.5,0,0,0,9.5-9.5v-7.46Z" transform="translate(0)"/><rect class="k" width="17.633" height="4.069" transform="translate(-662.77 591.548)"/><path class="k" d="M-668.661,583.792h32.553v8.138a7.461,7.461,0,0,1-7.46,7.461H-661.2a7.46,7.46,0,0,1-7.46-7.461Z" transform="translate(-1.569 -7.842)"/><rect class="n" width="1.357" height="2.035" transform="translate(-660.735 593.583)"/><rect class="n" width="1.356" height="2.035" transform="translate(-658.022 593.583)"/><path class="n" d="M-658.914,599.526a6.161,6.161,0,0,1-4.747-1.91c-2.369-2.574-2.048-6.782-2.035-6.963l1.357.111c0,.038-.283,3.806,1.683,5.937a4.86,4.86,0,0,0,3.743,1.468Z" transform="translate(-2.5 -10.012)"/><rect class="n" width="8.817" height="1.356" transform="translate(-648.527 577.984)"/><rect class="n" width="1.357" height="1.356" transform="translate(-651.24 577.984)"/><path class="l" d="M-638.905,575.28l3.391-3.391,4.747,4.747-3.391,3.391Z" transform="translate(-10.979 -4.078)"/><path class="l" d="M-633.944,570.948l2.034-2.036,4.747,4.747-2.035,2.035Zm0,0" transform="translate(-12.548 -3.137)"/><path class="j" d="M-622.153,567.836a3.683,3.683,0,0,0,1.192-2.712,3.682,3.682,0,0,0-1.192-2.713,3.683,3.683,0,0,0-2.713-1.192,3.683,3.683,0,0,0-2.712,1.192c-.588.588-3.391,4.069-3.391,4.069l4.747,4.748s3.481-2.8,4.069-3.391Z" transform="translate(-13.489 -0.703)"/><path class="n" d="M-622.743,565.6l1.356-1.357.959.959-1.357,1.357Z" transform="translate(-16.09 -1.66)"/><path class="n" d="M-625.719,568.576l1.356-1.356.959.959-1.356,1.356Z" transform="translate(-15.149 -2.601)"/><path class="n" d="M-662.852,577.747a.686.686,0,0,1-.3-.072,14.7,14.7,0,0,1-6.436-7.829l1.271-.474a13.864,13.864,0,0,0,5.425,6.892c1.252-.94,5.6-4.535,6.15-9.441l1.348.149c-.7,6.345-6.82,10.49-7.079,10.663a.68.68,0,0,1-.376.113Z" transform="translate(-1.274 -2.476)"/><path class="j" d="M-641.1,576.848l4.748,4.748h-9.5Z" transform="translate(-8.783 -5.646)"/></g><g transform="translate(764.098 -343.141)"><path class="k" d="M-534.792,491.869h28.052V506.72a4.95,4.95,0,0,1-4.951,4.95h-18.151a4.95,4.95,0,0,1-4.951-4.95Z" transform="translate(0 -5.102)"/><rect class="j" width="28.052" height="4.951" transform="translate(-534.792 481.817)"/><rect class="j" width="28.052" height="3.3" transform="translate(-519.941 497.494)"/><path class="n" d="M-534.792,481.817s0-9.9,7.424-12.375c0,0,16.5,1.65,18.977-3.3,0,0,3.3,5.776-.825,8.25,0,0,5.775,4.126,2.476,7.425Z"/><path class="b" d="M-520.516,476.508a10.906,10.906,0,0,1-5.585-1.617l.914-1.373c.2.129,4.575,2.94,8.987,0l.915,1.373a9.278,9.278,0,0,1-5.23,1.617Z" transform="translate(-1.723 -1.463)"/><path class="l" d="M-516.268,509.365h28.052v.825a4.95,4.95,0,0,1-4.95,4.95h-18.151a4.95,4.95,0,0,1-4.951-4.95Z" transform="translate(-3.673 -8.571)"/></g></g></svg>