<svg xmlns="http://www.w3.org/2000/svg" width="14" height="17.141" viewBox="0 0 14 17.141"><g transform="translate(0.001)"><path d="M13.956,3.831,13.578,2.7a1.055,1.055,0,0,0-1-.722H9.394V.939A.94.94,0,0,0,8.456,0H5.543A.94.94,0,0,0,4.6.939V1.974H1.424a1.056,1.056,0,0,0-1,.722L.043,3.831A.849.849,0,0,0,.848,4.949h.4l.871,10.767a1.558,1.558,0,0,0,1.544,1.425h6.859a1.558,1.558,0,0,0,1.544-1.425l.871-10.767h.219a.849.849,0,0,0,.806-1.118ZM5.609,1H8.39v.97H5.609ZM11.06,15.635a.548.548,0,0,1-.542.5H3.658a.548.548,0,0,1-.542-.5L2.252,4.949h9.672Zm-10-11.69.31-.93a.052.052,0,0,1,.05-.036H12.575a.052.052,0,0,1,.05.036l.31.93Zm0,0" transform="translate(0)"/><path d="M268.772,175.632h.027a.5.5,0,0,0,.5-.476l.472-9.053a.5.5,0,0,0-1-.052L268.3,175.1A.5.5,0,0,0,268.772,175.632Zm0,0" transform="translate(-259.314 -160.033)"/><path d="M106.289,175.161a.5.5,0,0,0,.5.475h.028a.5.5,0,0,0,.474-.529l-.494-9.053a.5.5,0,1,0-1,.055Zm0,0" transform="translate(-102.253 -160.035)"/><path d="M194.756,175.635a.5.5,0,0,0,.5-.5V166.08a.5.5,0,1,0-1,0v9.053A.5.5,0,0,0,194.756,175.635Zm0,0" transform="translate(-187.751 -160.035)"/></g></svg>