<svg xmlns="http://www.w3.org/2000/svg" xmlns:xlink="http://www.w3.org/1999/xlink" width="18" height="18" viewBox="0 0 18 18"><defs><style>.a{fill:#8c8c8c;}.b{fill:none;}.c{clip-path:url(#a);}</style><clipPath id="a"><path class="a" d="M5.25,4.189,1.28.22A.75.75,0,0,0,.22,1.28l4.5,4.5a.75.75,0,0,0,1.061,0l4.5-4.5A.75.75,0,0,0,9.22.22Z" transform="translate(3.75 6)"/></clipPath></defs><rect class="b" width="18" height="18"/><path class="a" d="M5.25,4.189,1.28.22A.75.75,0,0,0,.22,1.28l4.5,4.5a.75.75,0,0,0,1.061,0l4.5-4.5A.75.75,0,0,0,9.22.22Z" transform="translate(3.75 6)"/></svg>