<svg xmlns="http://www.w3.org/2000/svg" xmlns:xlink="http://www.w3.org/1999/xlink" width="166" height="108" viewBox="0 0 166 108"><defs><style>.a{fill:#fff;stroke:#707070;}.b{clip-path:url(#a);}.c{fill:#004623;}</style><clipPath id="a"><rect class="a" width="166" height="108" transform="translate(194)"/></clipPath></defs><g class="b" transform="translate(-194)"><g transform="translate(-2162.841 1630.162) rotate(-45)"><path class="c" d="M3003.585,679.192l-9.738,9.017a36.457,36.457,0,0,1-5.52,3.919,46.208,46.208,0,0,1-6,3.021,48.166,48.166,0,0,1-12.945,3.378,23.537,23.537,0,0,1-6.7-.166,13.963,13.963,0,0,1-6.22-2.722l-.237-.183.049-.3a12.579,12.579,0,0,1,2.853-5.93,19.9,19.9,0,0,1,5.006-4.182,26.852,26.852,0,0,1,2.9-1.458l1.492-.635,1.533-.5c.513-.161,1.023-.347,1.545-.466l1.568-.356c.523-.111,1.044-.251,1.569-.339l1.586-.223c1.06-.15,2.116-.291,3.153-.381l3.13-.3q3.13-.288,6.267-.525c4.182-.311,8.367-.588,12.574-.656l.012.181c-4.143.636-8.286,1.292-12.435,1.869l-6.226.849c-2.064.3-4.186.487-6.192.848l-1.522.237c-.506.082-1,.215-1.5.321l-1.5.334c-.5.107-.975.295-1.467.426l-1.466.433-1.415.557a25.2,25.2,0,0,0-2.748,1.281,19.465,19.465,0,0,0-4.721,3.677,11.755,11.755,0,0,0-.953,1.149c-.145.2-.3.4-.441.6l-.387.636a9.877,9.877,0,0,0-1.132,2.686l-.187-.485a12.618,12.618,0,0,0,5.644,2.911,18.71,18.71,0,0,0,6.505.245,39.73,39.73,0,0,0,12.408-4.147q2.949-1.435,5.786-3.075a43.141,43.141,0,0,0,5.4-3.6,117.21,117.21,0,0,1,10.558-8.094Z" transform="translate(-40.45 -30.783)"/><path class="c" d="M2958.554,695.412a39.334,39.334,0,0,1,5-2.8q1.289-.616,2.609-1.163a27.737,27.737,0,0,1,2.678-1c1.824-.567,3.708-.956,5.525-1.515s3.6-1.223,5.41-1.866c.893-.335,1.846-.615,2.747-.883q1.349-.373,2.691-.781c1.783-.568,3.551-1.192,5.328-1.8,3.569-1.179,7.13-2.426,10.806-3.5l.078.163a43.559,43.559,0,0,1-4.978,2.866,55.166,55.166,0,0,1-5.264,2.29,48.959,48.959,0,0,1-5.523,1.633c-.941.212-1.883.418-2.842.552-.945.165-1.861.233-2.793.42a29.2,29.2,0,0,0-5.472,1.465c-1.779.652-3.449,1.591-5.177,2.364q-1.291.593-2.623,1.078c-.885.332-1.77.665-2.667.972-1.792.618-3.593,1.216-5.466,1.669Z" transform="translate(-41.098 -31.075)"/><path class="c" d="M2959.068,669.56a75.629,75.629,0,0,0-8.339,4.143,24.656,24.656,0,0,0-3.688,2.623l-.777.773-.685.826c-.474.654-.979,1.267-1.5,1.866a64.033,64.033,0,0,1-6.891,6.506c-2.4,2.029-4.84,4.012-7.4,5.865a41.533,41.533,0,0,1-17.358,7.6,34.838,34.838,0,0,1-18.8-2.031l-.416-.168.292-.284c.542-.529,1.088-1.056,1.647-1.572l.134.12c-.444.616-.9,1.221-1.363,1.823l-.125-.452a45.316,45.316,0,0,0,18.3.664,51.249,51.249,0,0,0,17.2-6.448,39.855,39.855,0,0,0,7.464-5.589,63.838,63.838,0,0,0,6.126-7.012c.464-.615.939-1.224,1.383-1.837.256-.323.533-.663.808-.984l.911-.858a20.645,20.645,0,0,1,4.068-2.642,36.011,36.011,0,0,1,8.957-3.105Z" transform="translate(-22.954 -28.099)"/><path class="c" d="M2969.008,672.957a3.264,3.264,0,0,1-1.317.081,2.384,2.384,0,0,1-1.1-.384c-.319-.244-.589-.652-.945-.824a1.945,1.945,0,0,0-1.178-.152,4.9,4.9,0,0,1-1.207.062,5.725,5.725,0,0,1-1.132-.116,6.2,6.2,0,0,1-2.2-1.067l0-.181a3.778,3.778,0,0,1,2.524-.654,4.235,4.235,0,0,1,1.2.355,3.65,3.65,0,0,1,1.094.65,2.376,2.376,0,0,0,1.092.551c.4.071.871-.065,1.293-.033a2.263,2.263,0,0,1,1.11.5,2.674,2.674,0,0,1,.85,1.053Z" transform="translate(-41.479 -28.189)"/><path class="c" d="M2940.831,666.325a45.8,45.8,0,0,1-4.213,6.656,54.211,54.211,0,0,1-5.163,5.972,41.332,41.332,0,0,1-6.169,4.95,55.839,55.839,0,0,1-6.817,3.969c-2.37,1.138-4.767,2.19-7.225,3.139a60.444,60.444,0,0,1-7.566,2.278,59.361,59.361,0,0,1-7.79,1.34c-1.308.136-2.589.259-3.835.436-.624.1-1.244.208-1.838.357-.3.075-.59.152-.859.248-.137.047-.265.1-.38.152l-.152.078-.052.03c0-.009-.043.047.04-.061l-1.307-.533a36.479,36.479,0,0,1,1.223-4.593,18.678,18.678,0,0,1,.894-2.21,6.963,6.963,0,0,1,1.31-2l.136.117a7.974,7.974,0,0,0-.89,2.1c-.21.738-.384,1.487-.534,2.242-.3,1.507-.526,3.047-.7,4.558l-1.307-.532a1.022,1.022,0,0,1,.084-.1l.05-.051.083-.075.146-.113c.1-.069.18-.12.269-.172a5.257,5.257,0,0,1,.508-.257,8.778,8.778,0,0,1,.992-.378c.659-.209,1.316-.37,1.973-.513,1.321-.289,2.637-.425,3.916-.613,2.569-.353,5.111-.706,7.644-1.193s5.028-1.141,7.531-1.8c1.249-.339,2.5-.69,3.734-1.094.622-.186,1.23-.415,1.846-.622a15.9,15.9,0,0,0,1.807-.709,24.493,24.493,0,0,0,6.527-4.128l1.457-1.279,1.385-1.355c.926-.9,1.813-1.833,2.724-2.743,3.629-3.664,7.005-7.582,10.364-11.588Z" transform="translate(-21.37 -27.223)"/><path class="c" d="M2949.8,664.1a36.835,36.835,0,0,1-4.086.135,37.579,37.579,0,0,1-4.025-.229c-1.334-.187-2.675-.5-4.026-.565-.675-.023-1.349,0-2.023.042s-1.343.17-2.01.276-1.329.256-1.989.378-1.326.191-1.977.338l-1.959.374c-.646.152-1.288.3-1.938.417a61.727,61.727,0,0,0-7.727,2.01l-.1-.153a17.1,17.1,0,0,1,7.4-3.738c.677-.148,1.356-.3,2.043-.4l2.062-.208a24.593,24.593,0,0,1,4.126-.01,36.7,36.7,0,0,0,4.089.086c1.357-.041,2.726-.314,4.1-.355a12.836,12.836,0,0,1,2.048.072c.68.058,1.359.149,2.033.265a18.512,18.512,0,0,1,3.985,1.08Z" transform="translate(-29.824 -26.184)"/><path class="c" d="M2939.557,666.585c-1.962,1.3-3.991,2.445-6.03,3.571s-4.1,2.208-6.206,3.184-4.3,1.807-6.353,2.9c-2.047,1.078-3.96,2.461-6.037,3.586a66.8,66.8,0,0,1-6.288,3.14l-6.321,2.89c-2.1.95-4.154,1.958-6.137,3.089a25.785,25.785,0,0,0-5.516,4.089l-.145-.11a17.834,17.834,0,0,1,4.875-5.165,39.584,39.584,0,0,1,6.1-3.645c2.123-1.026,4.313-1.866,6.484-2.715,2.164-.867,4.361-1.624,6.519-2.465a29.526,29.526,0,0,0,3.146-1.448c1.022-.548,2.024-1.166,3.029-1.757,2-1.2,3.927-2.556,5.951-3.731a63.964,63.964,0,0,1,6.279-3.1,59.9,59.9,0,0,1,6.572-2.479Z" transform="translate(-22.209 -27.276)"/><path class="c" d="M2965.408,674.716a4.094,4.094,0,0,1-1.291.915,3.524,3.524,0,0,1-1.408.38,12.192,12.192,0,0,0-1.526-.1,3.11,3.11,0,0,0-1.366.555,6.382,6.382,0,0,1-1.316.719,8.029,8.029,0,0,1-1.371.493,7.06,7.06,0,0,1-3.039,0l-.055-.172a6.245,6.245,0,0,1,2.569-1.683,7.166,7.166,0,0,1,1.452-.285,5.84,5.84,0,0,1,1.513-.029,3.271,3.271,0,0,0,1.473-.162,14.45,14.45,0,0,0,1.318-.8,3.462,3.462,0,0,1,1.443-.285,3.889,3.889,0,0,1,1.567.279Z" transform="translate(-39.843 -29.452)"/><path class="c" d="M2908.168,658.453a25.814,25.814,0,0,0-10.813,7.349l-.7.834-.649.875c-.44.565-.857,1.206-1.289,1.811a68.191,68.191,0,0,1-11.9,13.544,38.33,38.33,0,0,1-15.895,8.354,25.39,25.39,0,0,1-9.017.352,26.846,26.846,0,0,1-8.619-2.86l-.782-.405.69-.6a65.478,65.478,0,0,1,6.436-4.819c1.115-.746,2.266-1.44,3.438-2.1s2.394-1.26,3.545-1.862c4.657-2.464,9.233-5.128,13.782-7.806q3.4-2.025,6.732-4.154c1.1-.716,2.2-1.447,3.242-2.22,1.074-.779,2.177-1.588,3.34-2.276a28.029,28.029,0,0,1,7.446-3.157,25.823,25.823,0,0,1,7.98-.715l0,.181a27.494,27.494,0,0,0-14.688,4.85c-1.095.709-2.1,1.51-3.144,2.329-1.055.844-2.139,1.63-3.232,2.4-2.179,1.549-4.428,2.98-6.694,4.378q-6.8,4.193-13.962,7.761c-1.213.6-2.392,1.138-3.538,1.76s-2.283,1.273-3.405,1.953c-2.235,1.362-4.413,2.867-6.5,4.436l-.091-1a25,25,0,0,0,8.147,3.193,21.712,21.712,0,0,0,8.774-.155,26.511,26.511,0,0,0,8.124-3.428,43.9,43.9,0,0,0,6.962-5.437,102.456,102.456,0,0,0,11.668-13.341,32.727,32.727,0,0,1,2.88-3.523,23.079,23.079,0,0,1,3.465-2.985,23.441,23.441,0,0,1,3.944-2.264,19.335,19.335,0,0,1,4.287-1.432Z" transform="translate(-10.539 -25.014)"/><path class="c" d="M2882.919,653.577a28.6,28.6,0,0,0-7.644,3.2c-1.2.683-2.36,1.443-3.5,2.229-1.132.805-2.2,1.643-3.312,2.518a57.705,57.705,0,0,1-14.583,8.625,44.6,44.6,0,0,1-8.195,2.282,38.68,38.68,0,0,1-8.461.488,31.151,31.151,0,0,1-15.871-5.545l-.78-.547.875-.431a60.924,60.924,0,0,1,7.257-2.954,69.322,69.322,0,0,1,7.536-2.127c2.551-.561,5.061-1.061,7.57-1.644,2.513-.543,4.992-1.175,7.446-1.873s4.854-1.557,7.237-2.489c1.181-.474,2.459-.949,3.708-1.333,1.264-.368,2.533-.712,3.82-.969a45.445,45.445,0,0,1,7.79-.887,29.763,29.763,0,0,1,3.914.128,17.763,17.763,0,0,1,3.842.726l-.048.175a27.529,27.529,0,0,0-7.654-.139,47.683,47.683,0,0,0-7.533,1.348c-1.238.3-2.451.681-3.652,1.086-1.206.427-2.333.9-3.531,1.435a64.37,64.37,0,0,1-7.348,2.743c-2.5.784-5.046,1.367-7.582,1.926-2.537.529-5.107.981-7.615,1.474a84.054,84.054,0,0,0-14.666,4.412l.1-.979a28.8,28.8,0,0,0,7.133,4.15,26.063,26.063,0,0,0,8.09,1.759,29.194,29.194,0,0,0,8.25-.81,44.167,44.167,0,0,0,7.821-2.725,81.228,81.228,0,0,0,14.277-8.433,42.823,42.823,0,0,1,7.208-4.485,29.556,29.556,0,0,1,3.94-1.6,18.778,18.778,0,0,1,4.143-.911Z" transform="translate(-2.787 -23.3)"/><path class="c" d="M2864.161,683.893s-.256.054-.721.137a49.3,49.3,0,0,1-8.266.746c-3.534,0-7.425-.477-10.293-2.09l-.111.2.1.2,3.894-1.921-.2-.4-4.278,2.111.374.21c2.988,1.675,6.94,2.147,10.515,2.148a48.9,48.9,0,0,0,9.081-.893l-.094-.441Z" transform="translate(-9.369 -31.257)"/><path class="c" d="M2847.264,652.82a56.834,56.834,0,0,1-9.048-.388,40.733,40.733,0,0,1-8.9-2.049l-2.093-.8c-.681-.249-1.379-.459-2.083-.646a34.933,34.933,0,0,0-4.3-.862,40.467,40.467,0,0,0-8.824-.327l-1.474.121,1.068-.944c2.438-2.154,4.893-4.255,7.382-6.33s5-4.119,7.715-5.943a34.319,34.319,0,0,1,8.938-4.086,45.6,45.6,0,0,1,9.67-1.845,41.265,41.265,0,0,1,19.387,2.9,45.057,45.057,0,0,1,15.951,11.144l-.124.131a63.406,63.406,0,0,0-7.819-5.621,49.972,49.972,0,0,0-8.6-4.11,45.874,45.874,0,0,0-9.2-2.246,47.758,47.758,0,0,0-9.465-.405A49.687,49.687,0,0,0,2836.05,632a36.241,36.241,0,0,0-8.863,3.425,58.247,58.247,0,0,0-7.847,5.592,86,86,0,0,0-7.055,6.6l-.405-.823a35.812,35.812,0,0,1,4.565-.415,31.706,31.706,0,0,1,4.585.152,27.856,27.856,0,0,1,4.536.844c.743.212,1.482.449,2.205.729l2.1.847a35.085,35.085,0,0,0,4.188,1.38c1.424.4,2.875.722,4.337,1.005,2.922.578,5.888,1.007,8.875,1.307Z" transform="translate(0 -16.76)"/><path class="c" d="M2815.783,650.009a42.1,42.1,0,0,1,7.707-3.689,37.534,37.534,0,0,1,4.127-1.237,19.656,19.656,0,0,1,4.324-.58,7.124,7.124,0,0,1,1.109.033c.364.029.759.05,1.084.088l1.022.1,1.041.037c.695.032,1.4,0,2.1,0,.7-.04,1.405-.074,2.108-.139,2.811-.255,5.593-.766,8.392-1.235a55.654,55.654,0,0,1,8.506-.923c.718-.014,1.436-.041,2.159-.008s1.444.026,2.169.1a17.477,17.477,0,0,1,2.168.264c.727.118,1.444.241,2.121.418,5.5,1.338,10.981,2.8,16.352,4.619l-.044.176c-5.651-.692-11.195-1.74-16.712-2.912a39.923,39.923,0,0,0-8.206-.961c-2.778-.027-5.584.069-8.4.207-2.819.155-5.631.443-8.436.836-1.4.188-2.807.417-4.237.563l-1.077.1-1.1.033c-.729.038-1.354.011-2.043.1a47.934,47.934,0,0,0-8.1,1.648c-2.689.76-5.361,1.64-8.058,2.52Z" transform="translate(-1.455 -20.617)"/><path class="c" d="M2904.544,660.261c-1.9,1.58-3.862,3.04-5.824,4.5s-3.93,2.891-5.945,4.259a64.184,64.184,0,0,0-5.965,4.234c-1.885,1.608-3.862,3.074-5.854,4.535-.993.738-2.014,1.433-3.044,2.116-1.048.652-2.1,1.307-3.179,1.9-2.14,1.23-4.335,2.366-6.59,3.381a60.791,60.791,0,0,1-6.97,2.555,22.792,22.792,0,0,1-7.365,1.084l0-.181.9-.195a6.02,6.02,0,0,0,.881-.212c.58-.192,1.161-.327,1.73-.549s1.142-.4,1.706-.62l1.688-.67c2.233-.949,4.45-1.928,6.645-2.965s4.417-2.022,6.585-3.125,4.346-2.189,6.492-3.35a28.33,28.33,0,0,0,5.991-4.135c1.794-1.688,3.55-3.44,5.46-5a56.964,56.964,0,0,1,6.061-4.214,55.973,55.973,0,0,1,6.512-3.49Z" transform="translate(-12.013 -25.522)"/><path class="c" d="M2879.722,654.369c-2.138,1.122-4.334,2.074-6.54,3s-4.43,1.793-6.7,2.533-4.611,1.312-6.856,2.129-4.427,1.82-6.676,2.7a56.69,56.69,0,0,1-6.868,2.267,71.037,71.037,0,0,1-7.081,1.513,50.615,50.615,0,0,1-7.244.524,25.944,25.944,0,0,1-3.646-.251,11.721,11.721,0,0,1-1.8-.37,8.543,8.543,0,0,1-1.72-.639l.067-.168a14.558,14.558,0,0,0,3.512.254c1.174-.028,2.348-.122,3.521-.247,2.343-.262,4.681-.605,7.011-1.006s4.667-.792,6.991-1.263c2.313-.514,4.636-1,6.955-1.555a44.642,44.642,0,0,0,6.765-2.3c2.208-.922,4.34-2.047,6.542-2.991s4.469-1.715,6.751-2.441a68.193,68.193,0,0,1,6.96-1.854Z" transform="translate(-3.9 -23.882)"/><path class="c" d="M2897.246,633.711a29.481,29.481,0,0,0-6.542-5.934c-2.413-1.71-4.977-3.192-7.557-4.692a122.529,122.529,0,0,1-15.047-9.845,45.741,45.741,0,0,1-6.5-6.316l-.725-.876-.715-.819c-.241-.271-.47-.554-.722-.816l-.8-.74c-.273-.242-.525-.508-.817-.732l-.876-.665a16.232,16.232,0,0,0-1.828-1.234,40.088,40.088,0,0,0-16.845-5.156l-2.134-.2,2.061-.578a40.541,40.541,0,0,1,4.976-1.03,46.376,46.376,0,0,1,5.058-.483,36.777,36.777,0,0,1,10.155,1.012l1.246.327c.413.118.813.282,1.221.42l1.217.436c.405.147.787.357,1.181.532a17.274,17.274,0,0,1,2.3,1.2c.735.454,1.509.883,2.176,1.386a73.2,73.2,0,0,1,7.934,6.327,76.6,76.6,0,0,1,6.955,7.38l3.176,3.887c1.055,1.3,2.152,2.473,3.283,3.789,2.2,2.6,3.97,5.467,5.9,8.184s3.9,5.427,6.641,7.345l-.095.154a18.238,18.238,0,0,1-3.977-3.124,41.566,41.566,0,0,1-3.325-3.811c-2.08-2.639-4.053-5.343-6.237-7.8-1.09-1.186-2.319-2.419-3.419-3.682l-3.308-3.775a85,85,0,0,0-6.9-7.126,88.561,88.561,0,0,0-7.688-6.258c-.661-.518-1.35-.908-2.028-1.349a15.874,15.874,0,0,0-2.124-1.157c-.365-.171-.716-.377-1.095-.521l-1.137-.431c-.382-.137-.754-.3-1.143-.419l-1.174-.332a37.28,37.28,0,0,0-9.716-1.312,42.937,42.937,0,0,0-9.838,1l-.073-.78a49.719,49.719,0,0,1,17.123,5.358c.653.378,1.318.739,1.934,1.182l.944.638c.313.215.592.476.891.713l.884.728c.279.261.537.544.807.816l.8.826.748.808a52.8,52.8,0,0,0,6.6,5.846c4.681,3.6,9.732,6.734,14.788,9.907a78.093,78.093,0,0,1,7.408,5.12,37.813,37.813,0,0,1,3.346,3.037,17.735,17.735,0,0,1,2.792,3.55Z" transform="translate(-7.106 -7.047)"/><path class="c" d="M2938.736,632.385c-2.391-2.353-4.79-4.692-7.234-6.976a99.045,99.045,0,0,0-7.533-6.536c-.639-.476-1.358-1-2.026-1.531s-1.312-1.1-1.937-1.671c-1.249-1.151-2.445-2.348-3.607-3.573a100.128,100.128,0,0,1-6.6-7.669,94.231,94.231,0,0,1-5.763-8.319,85.715,85.715,0,0,1-4.484-9.06c-1.378-3.06-2.726-6.13-4.174-9.145-.728-1.508-1.477-3-2.293-4.454a19.137,19.137,0,0,0-2.8-4l-1.258-1.264,1.7.48a39.387,39.387,0,0,1,9.611,4.367,57.81,57.81,0,0,1,8.428,6.319,83.148,83.148,0,0,1,7.323,7.544c2.31,2.627,4.468,5.381,6.529,8.2a134.447,134.447,0,0,1,10.941,17.843c1.606,3.1,2.985,6.313,4.3,9.542a82.853,82.853,0,0,1,3.152,9.96l-.173.049c-1.119-3.287-2.419-6.494-3.83-9.65-1.449-3.14-3.031-6.211-4.7-9.233-1.687-3.012-3.445-5.985-5.352-8.863-.929-1.454-1.913-2.872-2.87-4.306-1-1.4-1.978-2.827-3.023-4.2-2.019-2.8-4.177-5.486-6.385-8.129a81.328,81.328,0,0,0-7.038-7.519,62.128,62.128,0,0,0-8.043-6.383,39.34,39.34,0,0,0-9.094-4.642l.438-.785a19.721,19.721,0,0,1,2.785,4.326c.756,1.508,1.5,3.016,2.187,4.548,1.407,3.048,2.754,6.117,4.2,9.138a68.568,68.568,0,0,0,4.819,8.751c1.869,2.748,3.946,5.363,6.065,7.933s4.309,5.085,6.565,7.53c1.129,1.22,2.29,2.41,3.489,3.547.594.577,1.2,1.129,1.825,1.664s1.253,1.009,1.944,1.552a78.645,78.645,0,0,1,7.355,6.963c2.309,2.443,4.551,4.943,6.7,7.527Z" transform="translate(-21.795)"/><path class="c" d="M2992.594,655.852a49.984,49.984,0,0,1-13.808-4.888,45,45,0,0,1-11.828-8.781,113,113,0,0,1-9-11.562,138.3,138.3,0,0,1-7.89-12.325l-.388-.705.828.035a39.127,39.127,0,0,1,14.771,3.64,34.984,34.984,0,0,1,6.582,3.972c.5.4,1.042.759,1.511,1.2l1.425,1.308c.91.892,1.789,1.784,2.659,2.7q2.589,2.759,5.008,5.669c1.606,1.944,3.143,3.945,4.632,5.979s2.865,4.154,4.155,6.324c.311.55.631,1.094.93,1.651.284.566.582,1.12.85,1.694a22.706,22.706,0,0,1,1.381,3.529l-.171.058a38.8,38.8,0,0,0-3.768-6.434c-1.407-2.055-2.961-4.007-4.508-5.958s-3.163-3.85-4.833-5.7-3.33-3.7-5.077-5.478c-.851-.9-1.729-1.8-2.605-2.662-.9-.823-1.764-1.675-2.736-2.412a33.179,33.179,0,0,0-6.167-3.932,43.41,43.41,0,0,0-6.849-2.709,38.472,38.472,0,0,0-7.223-1.508l.441-.67a70.787,70.787,0,0,0,7.535,12.373c1.446,1.945,3.026,3.786,4.622,5.6.814.9,1.608,1.807,2.448,2.678l1.245,1.315q.65.62,1.281,1.253c.821.867,1.763,1.609,2.634,2.423.438.406.928.752,1.388,1.131s.911.774,1.4,1.115c.969.7,1.923,1.424,2.941,2.056.984.685,2.022,1.286,3.05,1.906a70.662,70.662,0,0,0,13.175,5.929Z" transform="translate(-38.633 -13.717)"/><path class="c" d="M2937.04,638.16a32.3,32.3,0,0,1-7.171-4.3c-1.091-.865-2.044-1.908-3.051-2.874a29.534,29.534,0,0,0-3.2-2.668c-1.133-.81-2.3-1.58-3.427-2.418-1.093-.873-2.174-1.761-3.2-2.723a26.766,26.766,0,0,1-2.908-3.063c-.434-.564-.854-1.136-1.272-1.708-.372-.617-.75-1.224-1.1-1.846l-.723-1.3,1.33.366c1.142.313,2.279.654,3.4,1.079l-.028.178c-1.2.046-2.388.006-3.571-.059l.606-.93c1.72,2.085,3.7,3.948,5.563,5.951.928,1.007,1.922,1.956,2.87,2.959.965.985,1.869,2.05,2.88,3a21.136,21.136,0,0,0,3.253,2.572c1.174.745,2.41,1.4,3.534,2.2a48,48,0,0,1,6.306,5.433Z" transform="translate(-27.891 -13.071)"/><path class="c" d="M2943.144,619.084a2.226,2.226,0,0,1,1.138-.254,1.593,1.593,0,0,1,.951.3c.27.227.472.619.757.789a1.581,1.581,0,0,0,.993.192,2.857,2.857,0,0,1,1.062.076,3.124,3.124,0,0,1,.963.344,2.938,2.938,0,0,1,1.308,1.781l-.1.147a4.291,4.291,0,0,1-2.076-.208,3.582,3.582,0,0,1-.8-.512,3.222,3.222,0,0,1-.736-.718,1.434,1.434,0,0,0-.821-.56,6.031,6.031,0,0,0-1.074.078,1.6,1.6,0,0,1-.893-.382,2.413,2.413,0,0,1-.719-.9Z" transform="translate(-36.803 -14.061)"/><path class="c" d="M2960.331,653.563a8.462,8.462,0,0,1,2.178.166,8.083,8.083,0,0,1,2,.62,17.3,17.3,0,0,0,1.871,1.047,5.689,5.689,0,0,0,2.08.336c.355.015.718-.015,1.068.006s.7.058,1.041.082l1.03.095a8.649,8.649,0,0,1,1.016.122,29.507,29.507,0,0,1,4.086,1.017l.016.18a8.428,8.428,0,0,1-4.345.717,11.127,11.127,0,0,1-2.123-.454,9.639,9.639,0,0,1-2.021-.8,7.5,7.5,0,0,0-2.007-.735c-.694-.142-1.458-.065-2.172-.174a4.245,4.245,0,0,1-1.031-.286,8.34,8.34,0,0,1-.977-.444,6.483,6.483,0,0,1-1.775-1.323Z" transform="translate(-41.572 -23.701)"/><path class="c" d="M2909.486,649.224a27.886,27.886,0,0,1,4.286.3c.7.092,1.4.21,2.1.34a17.474,17.474,0,0,1,2.072.479c1.365.4,2.7.967,4.076,1.3a25.512,25.512,0,0,0,4.211.623c1.425.089,2.841.227,4.242.43s2.809.359,4.2.628c2.779.543,5.51,1.195,8.279,1.989l-.011.181a24.327,24.327,0,0,1-4.322.14c-1.434-.063-2.854-.209-4.266-.408s-2.8-.524-4.184-.85c-1.391-.3-2.761-.7-4.123-1.138a27.708,27.708,0,0,0-4.139-1.022c-1.4-.223-2.851-.222-4.265-.4a17.388,17.388,0,0,1-2.095-.386c-.692-.16-1.381-.335-2.064-.536a25.967,25.967,0,0,1-4.035-1.489Z" transform="translate(-27.462 -22.499)"/><path class="c" d="M2909.794,652.521a27.859,27.859,0,0,1,4.4.183c.724.077,1.443.181,2.16.3a18.247,18.247,0,0,1,2.134.444c1.407.376,2.782.929,4.2,1.249a28.321,28.321,0,0,0,4.319.605c1.459.1,2.911.236,4.348.463,1.439.209,2.88.413,4.3.722a43,43,0,0,1,8.36,2.649l-.044.175a65.331,65.331,0,0,1-8.689-.932c-1.428-.252-2.838-.6-4.251-.938-1.415-.322-2.815-.724-4.209-1.167a27.373,27.373,0,0,0-4.243-1c-1.437-.214-2.917-.191-4.365-.344a18.481,18.481,0,0,1-2.15-.348c-.71-.147-1.418-.307-2.123-.493a28.354,28.354,0,0,1-4.173-1.383Z" transform="translate(-27.55 -23.409)"/><path class="c" d="M2964,659.664a14.712,14.712,0,0,1,3.13.07,15.252,15.252,0,0,1,3.01.62c.974.337,1.91.843,2.9,1.119a13.855,13.855,0,0,0,3.044.471,24.951,24.951,0,0,1,3.078.319c1.015.158,2.031.31,3.025.561a26.091,26.091,0,0,1,5.8,2.189l-.042.176a26.337,26.337,0,0,1-6.192-.485c-1.006-.2-1.987-.489-2.971-.777a25.07,25.07,0,0,1-2.917-1.018,13.705,13.705,0,0,0-2.952-.867c-1.011-.17-2.073-.11-3.1-.217a15.313,15.313,0,0,1-2.985-.717,14.814,14.814,0,0,1-2.865-1.267Z" transform="translate(-42.598 -25.384)"/><path class="c" d="M2963.178,662.95c4.819.541,9.573,1.4,14.306,2.355,2.367.471,4.723,1,7.059,1.614s4.659,1.294,6.987,1.939c2.333.628,4.682,1.182,7.04,1.7q1.77.386,3.551.723l3.557.707c2.374.465,4.741.959,7.091,1.556,1.176.289,2.351.592,3.523.927,1.172.3,2.351.7,3.529,1.082l-1.273.729c.137-1,.313-1.994.47-2.992l.7,1.086c-1.855-.482-3.684-1.042-5.521-1.576-1.829-.561-3.66-1.118-5.476-1.729s-3.63-1.224-5.427-1.9c-.9-.336-1.793-.681-2.678-1.063a24.336,24.336,0,0,1-2.616-1.232l.079-.163c1.8.613,3.664,1.039,5.508,1.524l5.551,1.4,5.548,1.412c1.843.495,3.7.95,5.532,1.465l.846.238-.145.849c-.169,1-.319,1.994-.506,2.986l-.21,1.114-1.064-.384c-1.1-.4-2.2-.815-3.354-1.156-1.136-.367-2.287-.708-3.444-1.035l-6.934-2.041c-2.315-.678-4.632-1.362-6.971-1.951s-4.693-1.12-7.067-1.56l-7.14-1.236c-2.375-.432-4.733-.94-7.08-1.5-4.7-1.1-9.381-2.267-14.008-3.71Z" transform="translate(-42.372 -26.312)"/><path class="c" d="M2954.6,619.375a48.567,48.567,0,0,1,5.223,3.745,51.863,51.863,0,0,1,4.761,4.289c1.478,1.551,2.8,3.25,4.249,4.823a35.173,35.173,0,0,0,4.669,4.328c1.677,1.313,3.348,2.629,4.976,3.993,1.643,1.349,3.288,2.695,4.892,4.089,3.18,2.823,6.308,5.712,9.229,8.863l-.115.139a94.879,94.879,0,0,1-10.365-7.537c-1.632-1.375-3.216-2.8-4.769-4.271q-1.173-1.089-2.311-2.221c-.753-.76-1.482-1.544-2.21-2.33-1.461-1.56-2.914-3.149-4.418-4.647s-3.24-2.763-4.859-4.135-3.144-2.849-4.662-4.338-3.009-3.011-4.407-4.651Z" transform="translate(-39.969 -14.213)"/><path class="c" d="M2894.767,573.069a53.575,53.575,0,0,1,6.965,6.4,82.766,82.766,0,0,1,6.07,7.228c1.866,2.536,3.533,5.215,5.326,7.79s3.644,5.119,5.476,7.67l11.278,15c3.681,5.065,7.32,10.168,10.711,15.47l-.142.112c-4.311-4.592-8.288-9.451-12.112-14.43-1.9-2.5-3.7-5.074-5.486-7.657q-2.707-3.857-5.078-7.959a73.623,73.623,0,0,0-5.121-7.866c-1.879-2.5-4-4.82-6.029-7.2-4.017-4.793-7.849-9.7-11.979-14.424Z" transform="translate(-23.352 -1.355)"/><path class="c" d="M2853.7,598.909a35.757,35.757,0,0,1,5.979,1.5,37.939,37.939,0,0,1,5.682,2.377c1.814.985,3.5,2.2,5.219,3.313.866.552,1.7,1.143,2.563,1.718.409.316.823.626,1.246.93l1.214.943c1.627,1.242,3.215,2.53,4.744,3.876,1.547,1.328,3.076,2.672,4.567,4.053,2.976,2.777,5.778,5.7,8.759,8.487l-.1.151a32.667,32.667,0,0,1-5.208-3.323c-1.647-1.228-3.209-2.55-4.748-3.892-1.522-1.363-2.984-2.785-4.429-4.223-1.464-1.419-2.868-2.9-4.252-4.4-.352-.367-.7-.75-1.058-1.1s-.733-.682-1.11-1.015c-.395-.314-.807-.6-1.213-.9s-.858-.534-1.285-.8a43.9,43.9,0,0,0-5.552-2.451c-1.871-.759-3.7-1.6-5.552-2.434s-3.695-1.679-5.524-2.63Z" transform="translate(-11.969 -8.53)"/></g></g></svg>