<svg xmlns="http://www.w3.org/2000/svg" xmlns:xlink="http://www.w3.org/1999/xlink" width="147.703" height="147.703" viewBox="0 0 147.703 147.703"><defs><style>.a{fill:none;}.b{fill:#154721;}.c{clip-path:url(#a);}.d{fill:url(#b);}.e{fill:#f4f3c7;}.f{fill:#aa0b1c;}.g{fill:url(#c);}.h{fill:url(#h);}.i{fill:url(#i);}.j{fill:url(#j);}.k{fill:#20ace7;}.l{fill:url(#p);}</style><clipPath id="a"><path class="a" d="M272.191,124.574H198.339v73.851a73.852,73.852,0,0,0,73.852,73.852h0a73.852,73.852,0,0,0,73.851-73.852h0C346.042,157.638,313.933,124.574,272.191,124.574Z"/></clipPath><linearGradient id="b" x1="0.087" y1="-0.073" x2="0.883" y2="0.843" gradientUnits="objectBoundingBox"><stop offset="0" stop-color="#efd800"/><stop offset="1" stop-color="#ec8210"/></linearGradient><linearGradient id="c" x1="0" y1="0.5" x2="1" y2="0.5" xlink:href="#b"/><linearGradient id="h" x1="0.177" y1="0.124" x2="0.633" y2="0.8" gradientUnits="objectBoundingBox"><stop offset="0" stop-color="#ec8210"/><stop offset="1" stop-color="#efd800"/></linearGradient><linearGradient id="i" x1="0.985" y1="0.885" x2="0.144" y2="0.026" xlink:href="#b"/><linearGradient id="j" x1="-0.038" y1="0.064" x2="0.997" y2="0.847" xlink:href="#b"/><linearGradient id="p" x1="0" y1="0.5" x2="1" y2="0.5" xlink:href="#h"/></defs><g transform="translate(-198.339 -124.574)"><path class="b" d="M272.191,124.574H198.339v73.851a73.852,73.852,0,0,0,73.852,73.852h0a73.852,73.852,0,0,0,73.851-73.852h0A73.449,73.449,0,0,0,272.191,124.574Z"/><g class="c"><path class="d" d="M270.912,281.356a65.62,65.62,0,0,0-6.635-26.637c-10.051-19.733-22.927-26.3-27.751-29.124a9.434,9.434,0,0,0-6.42.374c3.455,1.107,10.315,3.43,18.646,12.279,6.378,6.976,10.256,22.545,10.79,32.95.9,4.37,2.974,7.1,2.261,10.488Z"/><path class="e" d="M273.417,176.371l15.7,34.517,6.707-3.447a18.284,18.284,0,0,1-5.463-11.3,18.628,18.628,0,0,1,8.847-17.692,16.74,16.74,0,0,1,9.492-2.485S285.934,164.509,273.417,176.371Z"/><path class="e" d="M312.268,179.3a16.249,16.249,0,0,0-16.393,5.139,16.454,16.454,0,0,0-3.824,10.612,7.108,7.108,0,0,0,5.506-1.411c2.87-2.071,4.376-4.606,6.117-6.938s3.657-4.873,9.849-6.263Z"/><path class="e" d="M329.084,226.819c.376-2.133-.423-11.231-2.118-13.741,0,0,2.367,12.794-4.893,16.376,0,0,5.3-3.223,3.811-12.591,0,0-1.564,5.438-5.254,5.815,0,0,5.019-2.322,4.893-13.74a22.754,22.754,0,0,0-1.991-7.906,43.057,43.057,0,0,1-6,11.737c-3.257,4.543-5.494,6.565-7.38,7.7,1.66.8,4.567,2.649,5.767,4.716,1.992,3.432-.057,9.408-6.252,9.408-5.083,0-9.44-3.586-11.378-6.082a27.074,27.074,0,0,0-3.514,14.367c.44,8.031,5.811,21.771,10.843,25.536,0,0,20.567-13.227,22.575-32.614,0,0-1.244,4.537-6.476,8.562a37.881,37.881,0,0,0,4.617-7.193s-1.873,2.985-6.849,5.181C319.49,242.352,327.327,235.6,329.084,226.819Z"/><path class="f" d="M302.733,211.479c-.424-1.13-.108-1.412.551-2.071s0-1.306-.734-.439a3.239,3.239,0,0,1-2.688.957c-3.137.084-3.961.5-4.395,1.252-.305.5-.883,2.418,2.308,3.151a2.516,2.516,0,0,0,2.909,2.433C303.487,216.216,303.156,212.608,302.733,211.479Z"/><path class="e" d="M325.884,195.156,318.12,184.8s-1.788.235-2.306-.282A3.153,3.153,0,0,0,316,186.4c.423.565,2.54,1.741,1.364,3.764,0,0,.128-1.847-1.223-2.4a2.706,2.706,0,0,1-1.365-2.259s-1.03,1.6.565,4.094c.87,1.362,1.082,3.717-1.647,5.223,0,0,1.741-2.259.8-4.47s-1.977-3.341-1.412-5.365a5.624,5.624,0,0,0-.141,3.953,7.574,7.574,0,0,1-.094,5.835,8.331,8.331,0,0,0-.565-5.435c-.97-1.844-2.223-3.773-1.223-6.847a6.556,6.556,0,0,0-4.941,3.294c-1.882,3.153-4.678,7.937-7.435,9.647a8.339,8.339,0,0,1-6.544,1.142s.272,5.382,5.462,11.374l-2.824,1.657.687,1.572c.457-.763,1.261-1.172,4.395-1.252a3.236,3.236,0,0,0,2.688-.957c.73-.867,1.393-.22.734.439s-.975.941-.551,2.071.774,4.73-2.048,5.283a1.455,1.455,0,0,0,.635.693,3.343,3.343,0,0,0,2.663,3.9c3.063.731,8.679-1.835,15.172-13.175,2.024-3.435,5.168-10.338,3.944-12.879Z"/><path class="g" d="M273.417,176.371l-2.1-4.419c5.5-6.037,24.114-17.368,41.111-13.121,22.007,5.5,40.327,31.6,42.084,51.424s2.384,45.926-23.34,70.9H321.006s-8.031-2.164-2.384-18.6,11.44-17.106,11.67-28.861c.3-15.133,2.915-29-8.157-44.546-17.065-23.967-34.978-19.12-45.082-15Z"/><path class="g" d="M273.417,176.371s15.717-11.979,37.676,1.98c9.662,7.31,17.266,25.87,17.647,41.692.3,12.328,2.932,32.186-30.948,52.828v5.521s21.583-8.408,29.614-27.355,6.211-48.934-6.776-65.5C309.393,171.2,289.949,165.074,273.417,176.371Z"/><path class="g" d="M295.651,247.136A35.429,35.429,0,0,0,306,268.163l-3.547,1.976s-3.345-2.575-8.03-9.689c-4.5-6.829-5.753-17-4.663-23.84a44.321,44.321,0,0,1,4.061-11.985,22.23,22.23,0,0,1,4.328,4.177S294.426,235.619,295.651,247.136Z"/><path class="g" d="M285.065,220.376a32.823,32.823,0,0,0-8.535-.817,35.557,35.557,0,0,0-6.053,30.935l6.874,8.884,7.188-27.274Z"/><path class="g" d="M285.065,220.376c-2.293,3.866-5.018,8.072-5.488,18.536l6.544.692a82.644,82.644,0,0,1,3.236-17.654A25.824,25.824,0,0,0,285.065,220.376Z"/><path class="h" d="M293.821,224.625a34.217,34.217,0,0,0-4.464-2.7,35.813,35.813,0,0,0-5.3,22.762c1.553,10.612,7.042,20.821,16.632,26.885l1.877-1.438C296.585,265.22,282.474,247.328,293.821,224.625Z"/><path class="i" d="M276.438,276.362s-.379-15.2-12.966-32.766A62.375,62.375,0,0,0,242.7,225.752a6.666,6.666,0,0,0-5.913-.015,53.167,53.167,0,0,1,8.119,5.321c4.1,3.427,11.318,8.732,18.04,21.157a60.762,60.762,0,0,1,7.752,26.177c.624,7.824-.578,8.47-.578,8.47l7.247,1.317Z"/><path class="j" d="M242.48,225.666s4.161-1.438,6.649.513c1.815,1.424,6.854,4.342,9.172,6.489,8.005,7.415,18.024,16.7,22.551,37.565l-4.892,2.6a69.066,69.066,0,0,0-6.624-19.7,65.712,65.712,0,0,0-17-21.053A83.818,83.818,0,0,0,242.48,225.666Z"/><path class="k" d="M276.494,159.778,251.3,194.068l-6.682-7.314a20.9,20.9,0,0,0,6.588-5.3c2.353-3.2,5.647-9.317,1.506-17.316s-19.952-17.505-19.952-17.505l5.427-.471C244.778,151.449,254.541,163.4,276.494,159.778Z"/><path class="k" d="M232.761,151.906s12.854,8.347,15.866,12.676,3.521,6.146,3.05,11.511a9.36,9.36,0,0,1-7.089-3.231c-2.7-3.388-3.2-7.216-3.8-9.474s-1.933-6.2-4.015-8.219A45.427,45.427,0,0,0,232.761,151.906Z"/><path class="k" d="M260.179,277.291c-1.255-9.223-.585-20.816-8.574-35.133-3.758-6.737-13.731-13.682-19.628-15.527a23.834,23.834,0,0,1-10.666-6.588,14.587,14.587,0,0,1-3.831-11.353,15.374,15.374,0,0,1,6.986-11.576c-3.909-3.831-5.549-9.23-6.277-11.283a92.674,92.674,0,0,1-3.261-15.263c-9.386,3.6-20.127,15.72-20.127,15.72V294.453s65.158.628,65.284-1.066C261.9,286.36,261.434,286.514,260.179,277.291Z"/><path class="f" d="M241.278,188.829a4.887,4.887,0,0,1-2.682-2.572c-.141-.377-.424-1.365-1.365-.988s-.329,1.458.142,1.505.705.989-.189,1.6-2.611,2.618-1.471,4.734,2.224,2.231,2.224,2.231,2.3-.041,2.338-2.2a2.583,2.583,0,0,0,3.826-1.8A6.535,6.535,0,0,0,241.278,188.829Z"/><path class="k" d="M251.489,177.128c-3.576.126-5.521-.816-8.031-3.263s-3.513-7.779-4.642-12.234a14.277,14.277,0,0,0-3.215-5.978,10.392,10.392,0,0,0-4.283-2.461s-5.552,11.294-15.591,9.255c.878,16.5,4.706,26.257,7.058,30.162s4.847,6.023,7.576,6.917,4.941-1.976,5.6-2.823a5.421,5.421,0,0,1,1.976-1.364s-1.085-.115-2.224-2.231.577-4.122,1.471-4.734.659-1.552.189-1.6-1.083-1.129-.142-1.505,1.224.611,1.365.988a4.887,4.887,0,0,0,2.682,2.572,6.535,6.535,0,0,1,2.823,2.51l1.679-1.6-2.906-3.348C250.077,182.929,251.489,177.128,251.489,177.128Z"/><path class="g" d="M194.8,261.954a58.265,58.265,0,0,1,14.024,11.669c5.773,6.965,13.176,17.4,13.8,20.454h-5.96S208.194,275.192,194.8,268.1Z"/><path class="g" d="M194.8,268.1s12.519,5.019,21.867,25.975l-7.953-.627s-5.289-12.3-13.914-17.631Z"/><path class="g" d="M208.715,293.45s-6.042-13.176-13.914-17.631v8.408a24.01,24.01,0,0,1,7.687,10.284Z"/><path class="g" d="M194.8,294.453V284.227s5.426,4.714,7.31,9.384Z"/><path class="f" d="M268.837,159.594l-3.632,6.267c-1.139,1.966-2.74,4.044-3.475,6.2-.744,2.179.03,5.166,2.653,5.419-.035,0,.057-1.439,0-1.444-1.052-.1-2.487-.865-2.678-2.05-.184-1.134,1.277-2.843,1.825-3.789l5.307-9.158c.211-.365-.206-1.089,0-1.445Z"/><path class="g" d="M301.055,142.464s-14.991,17.849-30.334,18.351-23.624-6.9-23.624-6.9-30.439-23.434-14.43-27.7c7.266-1.937,38.529-7.638,53.455-6.211,17.959,1.716,24.046,11.528,24.046,11.528Z"/><path class="f" d="M264.1,180.767c1.323-.251,5.4-.6,6.626,2.149L235.3,271.051l-5.753-3.073Z"/><path class="k" d="M272.068,291.442s5.4-27.1,4.769-36.013-1-13.929-6.149-17.066a35.485,35.485,0,0,1-12.046-11.738c-2.51-4.324-10.666-7.335-18.321-4.7s-13.175,4.176-14.681-.986c0,0,3.89,1.362,10.039-.9s17.081-3.388,23.057.47a20.627,20.627,0,0,0-12.564-3.2c-7.058.658-15.695,1.223-17.87-1.271s-1.235-4.282-1.235-4.282,1.93,3.811,10.588,3.576,14.964-2.306,22.634,1.271a21.1,21.1,0,0,0-9.317-2.588c-5.365-.189-16.517,2.494-19.34-.612-1.506-1.647-1.694-2.918-1.318-4,0,0,2.4,2.776,4.988,2.729s11.152-1.552,14.4-1.5,8.722.564,12.1,2.4a34.122,34.122,0,0,0-9.043-3.058c-4.047-.518-13.266-4.42-11.341-10.87,0,0,2.4,4.235,4.565,5.176a138.694,138.694,0,0,0,14.163,4.565,39.509,39.509,0,0,1,17.129,10.493c3.435,3.906,6.682,7.341,9.223,18.493s1.788,14.869,5.411,21.692,9.835,18.634,10.446,24.046-.423,8.188-.423,8.188Z"/><circle class="a" cx="73.851" cy="73.851" r="73.851" transform="translate(198.339 124.574)"/><path class="f" d="M296.682,126.715a55.608,55.608,0,0,1-13.772,11.009,56.6,56.6,0,0,1-16.641,6.187,14.185,14.185,0,0,1-4.661.2,8.189,8.189,0,0,1-2.366-.724,7.084,7.084,0,0,1-2.042-1.5,7.382,7.382,0,0,1-1.4-2.122,6.952,6.952,0,0,1-.558-2.5,7.181,7.181,0,0,1,1.592-4.765,6.586,6.586,0,0,1,4.429-2.367,5.213,5.213,0,0,1,1.3.052,4.766,4.766,0,0,1,1.261.377,5.119,5.119,0,0,1,1.988,1.594,4.628,4.628,0,0,1,.942,2.346,3.743,3.743,0,0,1-.6,2.433,4.549,4.549,0,0,1-.817.909,4.31,4.31,0,0,1-1.025.621,3.9,3.9,0,0,1-1.153.265,3.273,3.273,0,0,1-1.145-.177l.052-.195a2.962,2.962,0,0,0,1.039-.039,3.441,3.441,0,0,0,.938-.388,4.077,4.077,0,0,0,.768-.643,3.658,3.658,0,0,0,.542-.813,3.037,3.037,0,0,0-.637-3.415,3.932,3.932,0,0,0-1.51-1,3.09,3.09,0,0,0-.858-.185,3.513,3.513,0,0,0-.892.035,4.761,4.761,0,0,0-3.041,1.852,5.429,5.429,0,0,0-1.07,3.436,5.343,5.343,0,0,0,1.329,3.344,5.577,5.577,0,0,0,3.232,1.8,12.534,12.534,0,0,0,4.1-.028,55.292,55.292,0,0,0,16.422-5.479,56.563,56.563,0,0,0,14.106-10.259Z"/><path class="l" d="M218.609,167.535a18.3,18.3,0,0,1-18.045-16.25A16.542,16.542,0,0,1,216.183,132.9a18.016,18.016,0,0,1,12.758,4.328c7.456,6.336,8.577,17.31,2.5,24.463a16.571,16.571,0,0,1-11.788,5.811Q219.128,167.535,218.609,167.535Zm-1.385-31.773q-.435,0-.872.025a13.653,13.653,0,0,0-12.915,15.2,15.394,15.394,0,0,0,16.046,13.635,13.708,13.708,0,0,0,9.755-4.8c5.047-5.94,4.075-15.087-2.167-20.392A15.182,15.182,0,0,0,217.224,135.762Z"/><path class="g" d="M218.491,164.831a15.226,15.226,0,0,1-9.88-3.675c-6.29-5.345-7.233-14.607-2.1-20.646a14,14,0,0,1,9.954-4.907,15.2,15.2,0,0,1,10.76,3.649c6.29,5.345,7.232,14.607,2.1,20.646h0a14,14,0,0,1-9.954,4.907Q218.93,164.831,218.491,164.831Zm-1.15-26.365c-.235,0-.472.007-.708.021a11.129,11.129,0,0,0-7.922,3.894c-4.1,4.825-3.306,12.26,1.77,16.574a12.328,12.328,0,0,0,8.721,2.966,11.132,11.132,0,0,0,7.922-3.894h0c4.1-4.825,3.305-12.26-1.771-16.574A12.351,12.351,0,0,0,217.341,138.466Z"/><path class="l" d="M218.275,159.9a10.061,10.061,0,0,1-6.53-2.428,9.539,9.539,0,1,1,13.722-.849h0a9.29,9.29,0,0,1-6.609,3.26C218.664,159.89,218.469,159.9,218.275,159.9ZM217.55,143.4a6.479,6.479,0,0,0-4.981,2.256,6.846,6.846,0,0,0,1.046,9.607,7.162,7.162,0,0,0,5.074,1.728,6.431,6.431,0,0,0,4.576-2.246h0a6.845,6.845,0,0,0-1.045-9.607A7.219,7.219,0,0,0,217.55,143.4Z"/><path class="g" d="M218.182,157.647a7.732,7.732,0,0,1-5.012-1.857,7.335,7.335,0,1,1,10.542-.663h0A7.208,7.208,0,0,1,218.182,157.647Zm-.532-12a4.327,4.327,0,0,0-3.326,1.5,4.723,4.723,0,0,0,7.186,6.106h0a4.59,4.59,0,0,0-.716-6.438A4.86,4.86,0,0,0,217.65,145.648Z"/><path class="f" d="M275.683,183.968a2.882,2.882,0,0,1-.005-1.517,1.672,1.672,0,0,1,1.728-1,2.259,2.259,0,0,1,1.677,1.205,2.321,2.321,0,0,1,.263,1.5,1.991,1.991,0,1,1-3.86-.948"/></g></g></svg>